<?xml version="1.0" encoding="UTF-8"?><svg enable-background="new 0 0 353.2 353.2" version="1.1" viewBox="0 0 353.2 353.2" xml:space="preserve" xmlns="http://www.w3.org/2000/svg">
<path d="m176.85 0c95.7 0.1 173.2 77.8 173 173.5-0.1 95.7-77.8 173.2-173.5 173-20.5 0-40.9-3.7-60.1-11l-100.5 17.7 29.1-67.7c-26.8-31.2-41.5-70.9-41.5-112 0-95.8 77.7-173.5 173.5-173.5z" fill="#FEDB41"/>
	<g fill="#00ACEA">
	<path d="m168.65 156.6h-54c-5.5 0-10-4.5-10-10s4.5-10 10-10h54c5.5 0 10 4.5 10 10s-4.5 10-10 10z"/>
		<path d="m238.65 206.6h-124c-5.5 0-10-4.5-10-10s4.5-10 10-10h124c5.5 0 10 4.5 10 10s-4.5 10-10 10z"/>
</g></svg>
